<svg xmlns="http://www.w3.org/2000/svg" viewBox="0 0 356 356"><path d="M312 311c-2 13-14 24-27 24H119c-13 0-25-11-26-24L66 46c-1-14 9-25 23-25h227c13 0 23 11 22 25l-26 265z" fill="#3c835d"/><path d="M329 21a27 27 0 0 1 0 55H75a27 27 0 1 1 0-55h254z" fill="#439268"/><path d="M264 311c-2 13-14 24-27 24H71c-13 0-25-11-26-24L18 46c-1-14 9-25 23-25h227c13 0 23 11 22 25l-26 265z" fill="#439268"/><path d="M281 21a27 27 0 0 1 0 55H27a27 27 0 1 1 0-55h254z" fill="#68a786"/><path d="M196 162l-24-42h-35l-21 36 16-2 6 16 16-29 20 34-12 6 33 4 12-30zm-92 15l-24 42 17 30h42l-10-12 10-13h-33l20-34 11 7-12-31-33 5zm59 72h48l18-30-21-36-6 14-17-2 17 29h-39v-13l-20 26 20 26z" fill="#cfc"/></svg>